<?xml version="1.0" encoding="UTF-8"?>
<svg id="Layer_1" data-name="Layer 1" xmlns="http://www.w3.org/2000/svg" viewBox="0 0 642.22 793.37">
  <defs>
    <style>
      .cls-1 {
        fill: #9ab3d5;
      }

      .cls-2 {
        font-size: 57.26px;
      }

      .cls-2, .cls-3 {
        font-family: Helvetica-Bold, Helvetica;
        font-weight: 700;
      }

      .cls-4 {
        fill: #fff;
      }

      .cls-5 {
        fill: #e56c0e;
      }

      .cls-6 {
        fill: #eb6a09;
      }

      .cls-7 {
        fill: #c5221a;
      }

      .cls-8 {
        letter-spacing: -.02em;
      }

      .cls-3 {
        font-size: 53.77px;
      }
    </style>
  </defs>
  <path d="M642.22,86.18l-25.31-32.15C444.56,110.11,321.11,0,321.11,0c0,0-123.45,110.11-295.81,54.03L0,86.18s75.23,88.23,6.16,240.06c0,0,28.73,63.61,32.83,183.98,5.47,61.55-5.47,163.46,282.13,283.15,287.6-119.69,276.65-221.6,282.13-283.15,4.1-120.37,32.83-183.98,32.83-183.98-69.08-151.84,6.16-240.06,6.16-240.06Z"/>
  <path class="cls-7" d="M603.24,91.99c-164.15,33.86-282.13-43.09-282.13-43.09,0,0-117.98,76.94-282.13,43.09,0,0,30.78,101.57,23.6,234.93-7.18,133.37-40.01,264.69,141.58,352.91,75.92,34.88,116.95,57.45,116.95,57.45,0,0,41.04-22.57,116.95-57.45,181.59-88.23,148.76-219.55,141.58-352.91-7.18-133.37,23.6-234.93,23.6-234.93Z"/>
  <path d="M557.87,328.1c-4.92-91.42,7.33-167.79,16.24-209.18H68.11c8.91,41.39,21.16,117.76,16.24,209.18-.79,14.75-1.9,29.56-2.98,43.89-2.4,32.03-4.73,63.08-3.66,92.69,1.73,48.01,18.88,94.29,49.69,131.15,34.83,41.67,95.85,85.89,193.7,85.89s158.88-44.22,193.7-85.89c30.81-36.86,47.96-83.14,49.69-131.15,1.07-29.61-1.26-60.66-3.66-92.69-1.07-14.33-2.18-29.14-2.98-43.89Z"/>
  <path class="cls-5" d="M321.11,675.91c-98.53,0-157.29-45.57-189.24-83.8-29.47-35.27-46.64-80.59-48.34-127.63-1.06-29.29,1.23-59.77,3.64-92.05,1.08-14.38,2.19-29.21,2.98-44.01,4.76-88.35-6.63-163.17-14.89-203.68h491.69c-8.26,40.51-19.65,115.32-14.89,203.68.8,14.79,1.91,29.61,2.98,43.95,2.42,32.36,4.71,62.83,3.65,92.11-1.7,47.04-18.87,92.36-48.34,127.63-31.95,38.23-90.72,83.8-189.24,83.8Z"/>
  <path d="M321.11,662.83c-93.47,0-149.04-43.02-179.21-79.11-27.62-33.05-43.71-75.56-45.31-119.72-1.03-28.56,1.22-58.68,3.61-90.57,1.08-14.43,2.2-29.32,3-44.31,4.32-80.19-4.62-149.73-12.12-191.3h460.03c-7.5,41.56-16.44,111.11-12.12,191.3.8,14.84,1.91,29.65,2.98,43.97l.02.26c2.39,31.95,4.65,62.11,3.62,90.66-1.6,44.15-17.68,86.67-45.31,119.72-30.16,36.09-85.74,79.11-179.21,79.11Z"/>
  <path class="cls-4" d="M321.11,657.01c-91.22,0-145.38-41.89-174.74-77.03-26.8-32.06-42.41-73.33-43.96-116.2-1.02-28.24,1.22-58.21,3.6-89.93,1.09-14.51,2.2-29.42,3.01-44.43,4.07-75.54-3.44-141.67-11-185.8h446.18c-7.56,44.12-15.07,110.25-11,185.8.8,14.88,1.91,29.7,2.98,44.03l.03.33c2.38,31.76,4.62,61.78,3.61,90-1.55,42.87-17.16,84.13-43.96,116.2-29.37,35.14-83.52,77.03-174.75,77.03Z"/>
  <g>
    <text class="cls-2" transform="translate(169.24 587.07) rotate(38.35)"><tspan x="0" y="0">B</tspan></text>
    <text class="cls-2" transform="translate(201.96 612.91) rotate(26.16)"><tspan x="0" y="0">A</tspan></text>
    <text class="cls-2" transform="translate(238.77 630.66) rotate(15.63)"><tspan x="0" y="0">L</tspan></text>
    <text class="cls-2" transform="translate(271.09 639.75) rotate(7.18)"><tspan x="0" y="0">L</tspan></text>
    <text class="cls-2" transform="translate(304.23 644.19) rotate(-.78)"><tspan x="0" y="0">K</tspan></text>
    <text class="cls-2" transform="translate(344.01 643.6) rotate(-8.99)"><tspan x="0" y="0">L</tspan></text>
    <text class="cls-2" transform="translate(377.83 638.66) rotate(-18.7)"><tspan x="0" y="0">U</tspan></text>
    <text class="cls-2" transform="translate(417.18 625.37) rotate(-30.57)"><tspan x="0" y="0">B</tspan></text>
    <text class="cls-2" transform="translate(453.04 604.14) rotate(-42.75)"><tspan x="0" y="0">B</tspan></text>
  </g>
  <text class="cls-3" transform="translate(146.7 190.45)"><tspan x="0" y="0">FIKSDA</tspan><tspan class="cls-8" x="200.13" y="0">L</tspan><tspan x="232.03" y="0" xml:space="preserve">     &amp;</tspan><tspan x="121.53" y="42.56">REKDA</tspan><tspan class="cls-8" x="312.71" y="42.56">L</tspan></text>
  <g>
    <circle cx="238.04" cy="455.29" r="83.07"/>
    <circle class="cls-6" cx="238.04" cy="455.29" r="78.08"/>
    <circle cx="404.19" cy="448.98" r="83.07"/>
    <circle class="cls-1" cx="404.19" cy="448.98" r="78.08"/>
    <g>
      <circle cx="309.02" cy="514.7" r="83.07"/>
      <circle class="cls-7" cx="309.02" cy="514.7" r="78.08"/>
    </g>
  </g>
  <g>
    <g>
      <path d="M203.73,319.03v-6.27c2.9-.13,4.93-.32,6.09-.58,1.85-.41,3.35-1.23,4.51-2.46.79-.84,1.4-1.96,1.8-3.36.24-.84.35-1.46.35-1.87h7.69v46.84h-9.43v-32.3h-11.02Z"/>
      <path d="M234.97,308.77c2.9-3.11,6.66-4.67,11.29-4.67,7.13,0,12.02,3.16,14.67,9.46,1.51,3.57,2.26,8.28,2.26,14.12s-.72,10.39-2.16,14.18c-2.76,7.21-7.82,10.82-15.18,10.82-3.51,0-6.67-1.04-9.46-3.12-2.8-2.08-4.4-5.11-4.81-9.09h9.17c.22,1.38.8,2.5,1.74,3.36.95.86,2.21,1.29,3.78,1.29,3.04,0,5.17-1.68,6.4-5.04.67-1.85,1.09-4.55,1.26-8.11-.84,1.06-1.73,1.86-2.68,2.42-1.72,1.03-3.84,1.55-6.36,1.55-3.73,0-7.03-1.29-9.92-3.86-2.89-2.57-4.33-6.28-4.33-11.13s1.45-9.08,4.35-12.19ZM250.46,327.36c2.09-1.33,3.13-3.65,3.13-6.94,0-2.65-.62-4.75-1.86-6.3-1.24-1.55-2.94-2.33-5.09-2.33-1.57,0-2.92.44-4.04,1.32-1.77,1.38-2.65,3.71-2.65,7.01,0,2.78.57,4.86,1.7,6.25,1.13,1.39,2.87,2.08,5.22,2.08,1.27,0,2.47-.37,3.59-1.1Z"/>
    </g>
    <g>
      <path d="M420.87,311.12c-1.38,1.36-3.3,3.77-5.76,7.25-2.46,3.48-4.52,7.07-6.18,10.77-1.32,2.91-2.5,6.46-3.56,10.66s-1.59,7.65-1.59,10.34h-9.56c.28-8.4,3.04-17.13,8.28-26.2,3.38-5.62,6.22-9.54,8.5-11.76h-23.34l.13-8.27h33.08v7.2Z"/>
      <path d="M421.82,307.58c2.9-3.11,6.66-4.67,11.29-4.67,7.13,0,12.02,3.16,14.67,9.46,1.51,3.57,2.26,8.28,2.26,14.12s-.72,10.39-2.16,14.18c-2.76,7.21-7.82,10.82-15.18,10.82-3.51,0-6.67-1.04-9.46-3.12-2.8-2.08-4.4-5.11-4.81-9.09h9.17c.22,1.38.8,2.5,1.74,3.36.95.86,2.21,1.29,3.78,1.29,3.04,0,5.17-1.68,6.4-5.04.67-1.85,1.09-4.55,1.26-8.11-.84,1.06-1.73,1.86-2.68,2.42-1.72,1.03-3.84,1.55-6.36,1.55-3.73,0-7.03-1.29-9.92-3.86-2.89-2.57-4.33-6.28-4.33-11.13s1.45-9.08,4.35-12.19ZM437.31,326.17c2.09-1.33,3.13-3.65,3.13-6.94,0-2.65-.62-4.75-1.86-6.3-1.24-1.55-2.94-2.33-5.09-2.33-1.57,0-2.92.44-4.04,1.32-1.77,1.38-2.65,3.71-2.65,7.01,0,2.78.57,4.86,1.7,6.25,1.13,1.39,2.87,2.08,5.22,2.08,1.27,0,2.47-.37,3.59-1.1Z"/>
    </g>
    <g>
      <path d="M321.11,240.82h-166.66s101.27,42.64,166.66,129.7c65.38-87.06,166.66-129.7,166.66-129.7h-166.66Z"/>
      <path class="cls-1" d="M180.73,246.86c19.12,10.11,47.47,26.86,76.92,50.48l46.56-50.48h-123.48Z"/>
      <path class="cls-4" d="M311.64,246.86l-49.75,53.94c11.66,9.59,23.43,20.25,34.81,32l79.26-85.94h-64.33Z"/>
    </g>
  </g>
</svg>